<svg xmlns="http://www.w3.org/2000/svg" width="24" height="24" viewBox="0 0 24 24" fill="none">
  <g clip-path="url(#clip0_1_246)">
    <path d="M12 0.959961C18.0919 0.959961 23.04 5.90809 23.04 12C23.04 18.0918 18.0919 23.04 12 23.04C5.90813 23.04 0.96 18.0918 0.96 12C0.96 5.90809 5.90813 0.959961 12 0.959961ZM12 1.91996C6.4275 1.91996 1.92 6.42746 1.92 12C1.92 17.5725 6.4275 22.08 12 22.08C17.5725 22.08 22.08 17.5725 22.08 12C22.08 6.42746 17.5725 1.91996 12 1.91996ZM8.16938 7.67434C8.295 7.67809 8.41313 7.73059 8.49938 7.82059L15.36 14.6812V10.41C15.3581 10.2787 15.4087 10.155 15.5006 10.0631C15.5925 9.97121 15.7181 9.92059 15.8475 9.92246C16.1119 9.92621 16.3238 10.1437 16.32 10.41V15.7668C16.3463 15.9206 16.2956 16.0762 16.1869 16.1868C16.0763 16.2956 15.9206 16.3462 15.7669 16.32H10.41C10.2356 16.3218 10.0744 16.2318 9.98812 16.0818C9.9 15.9318 9.9 15.7481 9.98812 15.5981C10.0744 15.4481 10.2356 15.3581 10.41 15.36H14.6813L7.82063 8.49934C7.67813 8.36059 7.63688 8.15059 7.71375 7.96871C7.79063 7.78496 7.97063 7.66871 8.16938 7.67434Z" fill="black"/>
  </g>
  <defs>
    <clipPath id="clip0_1_246">
      <rect width="24" height="24" fill="white" transform="matrix(-1 0 0 1 24 0)"/>
    </clipPath>
  </defs>
</svg>