<svg xmlns="http://www.w3.org/2000/svg" width="23" height="23" viewBox="0 0 23 23" fill="none">
<path d="M11.04 0C17.1319 0 22.08 4.94812 22.08 11.04C22.08 17.1319 17.1319 22.08 11.04 22.08C4.94813 22.08 1.90735e-06 17.1319 1.90735e-06 11.04C1.90735e-06 4.94812 4.94813 0 11.04 0ZM11.04 0.96C5.4675 0.96 0.960003 5.4675 0.960003 11.04C0.960003 16.6125 5.4675 21.12 11.04 21.12C16.6125 21.12 21.12 16.6125 21.12 11.04C21.12 5.4675 16.6125 0.96 11.04 0.96ZM7.20938 6.71438C7.335 6.71813 7.45313 6.77062 7.53938 6.86062L14.4 13.7212V9.45C14.3981 9.31875 14.4488 9.195 14.5406 9.10312C14.6325 9.01125 14.7581 8.96062 14.8875 8.9625C15.1519 8.96625 15.3638 9.18375 15.36 9.45V14.8069C15.3863 14.9606 15.3356 15.1163 15.2269 15.2269C15.1163 15.3356 14.9606 15.3862 14.8069 15.36H9.45C9.27563 15.3619 9.11438 15.2719 9.02813 15.1219C8.94 14.9719 8.94 14.7881 9.02813 14.6381C9.11438 14.4881 9.27563 14.3981 9.45 14.4H13.7213L6.86063 7.53937C6.71813 7.40063 6.67688 7.19062 6.75375 7.00875C6.83063 6.825 7.01063 6.70875 7.20938 6.71438Z" fill="black"/>
</svg>