<svg xmlns="http://www.w3.org/2000/svg" width="120" height="121" viewBox="0 0 120 121" fill="none">
  <path d="M60 5.46001C90.4594 5.46001 115.2 30.2006 115.2 60.66C115.2 91.1194 90.4594 115.86 60 115.86C29.5406 115.86 4.80003 91.1194 4.80003 60.66C4.80003 30.2006 29.5406 5.46001 60 5.46001ZM60 10.26C32.1375 10.26 9.60003 32.7975 9.60003 60.66C9.60003 88.5225 32.1375 111.06 60 111.06C87.8625 111.06 110.4 88.5225 110.4 60.66C110.4 32.7975 87.8625 10.26 60 10.26ZM40.8469 39.0319C41.475 39.0506 42.0657 39.3131 42.4969 39.7631L76.8 74.0662V52.71C76.7906 52.0538 77.0438 51.435 77.5031 50.9756C77.9625 50.5163 78.5906 50.2631 79.2375 50.2725C80.5594 50.2913 81.6188 51.3788 81.6 52.71V79.4944C81.7313 80.2631 81.4781 81.0412 80.9344 81.5944C80.3813 82.1381 79.6031 82.3913 78.8344 82.26H52.05C51.1781 82.2694 50.3719 81.8194 49.9406 81.0694C49.5 80.3194 49.5 79.4006 49.9406 78.6506C50.3719 77.9006 51.1781 77.4506 52.05 77.46H73.4063L39.1031 43.1569C38.3906 42.4631 38.1844 41.4131 38.5688 40.5038C38.9531 39.585 39.8531 39.0038 40.8469 39.0319Z" fill="black"/>
</svg>