<svg xmlns="http://www.w3.org/2000/svg" width="101" height="100" viewBox="0 0 101 100" fill="none">
  <path d="M59.5594 25.8531L48.8078 30L37.7141 25.825C34.6422 24.6687 33.0453 21.2797 34.1078 18.175L37.55 8.125H59.6594L63.1172 18.2203C64.1766 21.3078 62.6047 24.6797 59.5594 25.8531Z" fill="url(#paint0_linear_1_279)"/>
  <path d="M65.8125 41.5011V53.437C65.8125 56.0261 63.7141 58.1245 61.125 58.1245H36.125C33.5359 58.1245 31.4375 56.0261 31.4375 53.437V40.937C31.4375 31.3355 39.2906 23.5855 48.9297 23.7527C58.3969 23.9152 65.8125 32.0323 65.8125 41.5011Z" fill="url(#paint1_linear_1_279)"/>
  <path d="M48.6258 25.3125C54.669 25.3125 59.568 20.0658 59.568 13.5938C59.568 7.12166 54.669 1.875 48.6258 1.875C42.5826 1.875 37.6836 7.12166 37.6836 13.5938C37.6836 20.0658 42.5826 25.3125 48.6258 25.3125Z" fill="#FFCE29"/>
  <path d="M48.623 0.3125C42.1512 0.3125 36.9043 5.55937 36.9043 12.0312C36.9043 12.2828 36.9262 12.5281 36.9418 12.775C37.1902 12.7891 37.4355 12.8125 37.6855 12.8125C42.2246 12.8125 46.2277 10.5328 48.623 7.05781C51.0184 10.5312 55.0215 12.8125 59.5605 12.8125C59.8121 12.8125 60.0559 12.7891 60.3043 12.775C60.3199 12.5281 60.3418 12.2828 60.3418 12.0312C60.3418 5.55937 55.0949 0.3125 48.623 0.3125Z" fill="url(#paint2_linear_1_279)"/>
  <path opacity="0.3" d="M50.75 100C67.146 100 80.4375 97.9013 80.4375 95.3125C80.4375 92.7237 67.146 90.625 50.75 90.625C34.354 90.625 21.0625 92.7237 21.0625 95.3125C21.0625 97.9013 34.354 100 50.75 100Z" fill="black"/>
  <path d="M49.1875 63.2812V73.4375C49.1875 76.0266 47.0891 78.125 44.5 78.125H17.9375C15.3484 78.125 13.25 76.0266 13.25 73.4375V63.2812C13.25 53.3578 21.2953 45.3125 31.2188 45.3125C41.1422 45.3125 49.1875 53.3578 49.1875 63.2812Z" fill="url(#paint3_linear_1_279)"/>
  <path opacity="0.3" d="M21.0281 78.125C22.0172 76.8156 22.625 75.2047 22.625 73.4375V63.2812C22.625 61.2187 23.2391 59.2344 24.3984 57.5453C26.6625 54.2453 26.0172 49.8484 23.0797 47.2766C17.25 50.2469 13.25 56.2906 13.25 63.2812V73.4375C13.25 76.0266 15.3484 78.125 17.9375 78.125H21.0281Z" fill="white"/>
  <path d="M31.2188 51.5625C34.2391 51.5625 36.6875 49.1141 36.6875 46.0938C36.6875 43.0734 34.2391 40.625 31.2188 40.625C28.1984 40.625 25.75 43.0734 25.75 46.0938C25.75 49.1141 28.1984 51.5625 31.2188 51.5625Z" fill="#FFA500"/>
  <path d="M20.2797 35.9406C21.575 35.9406 22.625 34.8906 22.625 33.5953C22.625 32.3 21.575 31.25 20.2797 31.25C18.9844 31.25 17.9344 32.3 17.9344 33.5953C17.9344 34.8906 18.9844 35.9406 20.2797 35.9406Z" fill="#FFCE29"/>
  <path d="M42.1578 35.9406C43.4531 35.9406 44.5031 34.8906 44.5031 33.5953C44.5031 32.3 43.4531 31.25 42.1578 31.25C40.8625 31.25 39.8125 32.3 39.8125 33.5953C39.8125 34.8906 40.8625 35.9406 42.1578 35.9406Z" fill="#FFCE29"/>
  <path d="M31.2172 46.875C37.6901 46.875 42.9375 41.2548 42.9375 34.3219C42.9375 27.389 37.6901 21.7687 31.2172 21.7687C24.7443 21.7687 19.4969 27.389 19.4969 34.3219C19.4969 41.2548 24.7443 46.875 31.2172 46.875Z" fill="#FFCE29"/>
  <path d="M23.4234 26.7844C23.4234 26.7844 27.5828 27.9 31.2203 27.9C34.8578 27.9 39.0172 26.7844 39.0172 26.7844V27.35C39.0172 29.6563 40.5391 31.5391 42.6875 31.5375H42.7125C42.7141 27.8547 41.7094 23.8828 38.7766 21.2969C34.425 17.4641 28.0172 17.4641 23.6656 21.2969C20.7297 23.8828 19.7172 28.7406 19.7172 31.5313C19.7313 31.5313 19.7422 31.5313 19.7563 31.5313C21.9031 31.5313 23.4234 29.6609 23.4234 27.3547V26.7844Z" fill="url(#paint4_linear_1_279)"/>
  <path d="M20.2812 67.1844H20.2766C18.9844 67.1828 17.9375 66.1359 17.9375 64.8437C17.9375 64.1047 18.0438 57.5172 21.7484 53.8109C22.6641 52.8953 24.1469 52.8953 25.0625 53.8109C25.9781 54.7266 25.9781 56.2094 25.0625 57.125C23.0797 59.1078 22.6297 63.3719 22.6234 64.8469C22.6203 66.139 21.5719 67.1844 20.2812 67.1844Z" fill="white"/>
  <path d="M83.5594 45.8531L72.8078 50L61.7141 45.825C58.6422 44.6687 57.0453 41.2797 58.1078 38.175L61.55 28.125H83.6594L87.1172 38.2203C88.1766 41.3078 86.6047 44.6797 83.5594 45.8531Z" fill="url(#paint5_linear_1_279)"/>
  <path d="M83.5594 45.8531L72.8078 50L61.7141 45.825C58.6422 44.6687 57.0453 41.2797 58.1078 38.175L61.55 28.125H83.6594L87.1172 38.2203C88.1766 41.3078 86.6047 44.6797 83.5594 45.8531Z" fill="url(#paint6_linear_1_279)"/>
  <path d="M89.8125 61.5016V73.4375C89.8125 76.0266 87.7141 78.125 85.125 78.125H60.125C57.5359 78.125 55.4375 76.0266 55.4375 73.4375V60.9375C55.4375 51.3359 63.2906 43.5859 72.9297 43.7531C82.3969 43.9156 89.8125 52.0328 89.8125 61.5016Z" fill="url(#paint7_linear_1_279)"/>
  <path d="M89.8125 61.5011V73.437C89.8125 76.0261 87.7141 78.1245 85.125 78.1245H60.125C57.5359 78.1245 55.4375 76.0261 55.4375 73.437V60.937C55.4375 51.3355 63.2906 43.5855 72.9297 43.7527C82.3969 43.9152 89.8125 52.0323 89.8125 61.5011Z" fill="url(#paint8_linear_1_279)"/>
  <path opacity="0.15" d="M89.8125 73.4375V61.5016C89.8125 58.8 89.1922 56.2172 88.1078 53.8875C84.6156 54.6672 82 57.7735 82 61.5016V70.3125H74.1875C69.8719 70.3125 66.375 73.8094 66.375 78.125H85.125C87.7141 78.125 89.8125 76.0266 89.8125 73.4375Z" fill="black"/>
  <path d="M72.625 50C75.2138 50 77.3125 47.9013 77.3125 45.3125C77.3125 42.7237 75.2138 40.625 72.625 40.625C70.0362 40.625 67.9375 42.7237 67.9375 45.3125C67.9375 47.9013 70.0362 50 72.625 50Z" fill="#FFA500"/>
  <path d="M72.625 45.3125C78.6682 45.3125 83.5672 40.0658 83.5672 33.5938C83.5672 27.1217 78.6682 21.875 72.625 21.875C66.5818 21.875 61.6828 27.1217 61.6828 33.5938C61.6828 40.0658 66.5818 45.3125 72.625 45.3125Z" fill="#FFCE29"/>
  <path d="M72.6258 45.3125C78.669 45.3125 83.568 40.0658 83.568 33.5938C83.568 27.1217 78.669 21.875 72.6258 21.875C66.5826 21.875 61.6836 27.1217 61.6836 33.5938C61.6836 40.0658 66.5826 45.3125 72.6258 45.3125Z" fill="#FFCE29"/>
  <path d="M72.6234 20.3125C66.1516 20.3125 60.9047 25.5594 60.9047 32.0312C60.9047 32.2828 60.9266 32.5281 60.9422 32.775C61.1906 32.7891 61.4359 32.8125 61.6859 32.8125C66.225 32.8125 70.2281 30.5328 72.6234 27.0578C75.0188 30.5312 79.0219 32.8125 83.5609 32.8125C83.8125 32.8125 84.0563 32.7891 84.3047 32.775C84.3203 32.5281 84.3422 32.2828 84.3422 32.0312C84.3422 25.5594 79.0953 20.3125 72.6234 20.3125Z" fill="url(#paint9_linear_1_279)"/>
  <defs>
    <linearGradient id="paint0_linear_1_279" x1="48.6133" y1="8.125" x2="48.6133" y2="30" gradientUnits="userSpaceOnUse">
      <stop stop-color="#0F0AEF" stop-opacity="0.5"/>
      <stop offset="0.5" stop-color="#0C08BC" stop-opacity="0.75"/>
      <stop offset="1" stop-color="#4846C1"/>
    </linearGradient>
    <linearGradient id="paint1_linear_1_279" x1="48.625" y1="23.75" x2="48.625" y2="58.1245" gradientUnits="userSpaceOnUse">
      <stop stop-color="#4846C1"/>
      <stop offset="1" stop-color="#16A34A"/>
    </linearGradient>
    <linearGradient id="paint2_linear_1_279" x1="48.623" y1="0.3125" x2="48.623" y2="12.8125" gradientUnits="userSpaceOnUse">
      <stop stop-color="#0F0AEF" stop-opacity="0.5"/>
      <stop offset="0.5" stop-color="#0C08BC" stop-opacity="0.75"/>
      <stop offset="1" stop-color="#4846C1"/>
    </linearGradient>
    <linearGradient id="paint3_linear_1_279" x1="31.2188" y1="45.3125" x2="31.2188" y2="78.125" gradientUnits="userSpaceOnUse">
      <stop stop-color="#0F0AEF" stop-opacity="0.5"/>
      <stop offset="0.5" stop-color="#0C08BC" stop-opacity="0.75"/>
      <stop offset="1" stop-color="#4846C1"/>
    </linearGradient>
    <linearGradient id="paint4_linear_1_279" x1="31.2149" y1="18.4223" x2="31.2149" y2="31.5375" gradientUnits="userSpaceOnUse">
      <stop stop-color="#0F0AEF" stop-opacity="0.5"/>
      <stop offset="0.5" stop-color="#0C08BC" stop-opacity="0.75"/>
      <stop offset="1" stop-color="#4846C1"/>
    </linearGradient>
    <linearGradient id="paint5_linear_1_279" x1="72.6133" y1="28.125" x2="72.6133" y2="50" gradientUnits="userSpaceOnUse">
      <stop stop-color="#0F0AEF" stop-opacity="0.5"/>
      <stop offset="0.5" stop-color="#0C08BC" stop-opacity="0.75"/>
      <stop offset="1" stop-color="#4846C1"/>
    </linearGradient>
    <linearGradient id="paint6_linear_1_279" x1="72.6133" y1="28.125" x2="72.6133" y2="50" gradientUnits="userSpaceOnUse">
      <stop stop-color="#0F0AEF" stop-opacity="0.5"/>
      <stop offset="0.5" stop-color="#0C08BC" stop-opacity="0.75"/>
      <stop offset="1" stop-color="#4846C1"/>
    </linearGradient>
    <linearGradient id="paint7_linear_1_279" x1="72.625" y1="43.7505" x2="72.625" y2="78.125" gradientUnits="userSpaceOnUse">
      <stop stop-color="#4846C1"/>
      <stop offset="1" stop-color="#16A34A"/>
    </linearGradient>
    <linearGradient id="paint8_linear_1_279" x1="72.625" y1="43.75" x2="72.625" y2="78.1245" gradientUnits="userSpaceOnUse">
      <stop stop-color="#4846C1"/>
      <stop offset="1" stop-color="#16A34A"/>
    </linearGradient>
    <linearGradient id="paint9_linear_1_279" x1="72.6234" y1="20.3125" x2="72.6234" y2="32.8125" gradientUnits="userSpaceOnUse">
      <stop stop-color="#0F0AEF" stop-opacity="0.5"/>
      <stop offset="0.5" stop-color="#0C08BC" stop-opacity="0.75"/>
      <stop offset="1" stop-color="#4846C1"/>
    </linearGradient>
  </defs>
</svg>