<svg xmlns="http://www.w3.org/2000/svg" width="101" height="100" viewBox="0 0 101 100" fill="none">
  <path opacity="0.3" d="M50.25 100C66.646 100 79.9375 97.9013 79.9375 95.3125C79.9375 92.7237 66.646 90.625 50.25 90.625C33.854 90.625 20.5625 92.7237 20.5625 95.3125C20.5625 97.9013 33.854 100 50.25 100Z" fill="black"/>
  <path opacity="0.3" d="M20.5281 78.125C21.5172 76.8156 22.125 75.2047 22.125 73.4375V63.2812C22.125 61.2187 22.7391 59.2344 23.8984 57.5453C26.1625 54.2453 25.5172 49.8484 22.5797 47.2766C16.75 50.2469 12.75 56.2906 12.75 63.2812V73.4375C12.75 76.0266 14.8484 78.125 17.4375 78.125H20.5281Z" fill="white"/>
  <path d="M30.7188 51.5625C33.7391 51.5625 36.1875 49.1141 36.1875 46.0938C36.1875 43.0734 33.7391 40.625 30.7188 40.625C27.6984 40.625 25.25 43.0734 25.25 46.0938C25.25 49.1141 27.6984 51.5625 30.7188 51.5625Z" fill="#FFA500"/>
  <path d="M19.7797 35.9406C21.075 35.9406 22.125 34.8906 22.125 33.5953C22.125 32.3 21.075 31.25 19.7797 31.25C18.4844 31.25 17.4344 32.3 17.4344 33.5953C17.4344 34.8906 18.4844 35.9406 19.7797 35.9406Z" fill="#FFCE29"/>
  <path d="M41.6578 35.9406C42.9531 35.9406 44.0031 34.8906 44.0031 33.5953C44.0031 32.3 42.9531 31.25 41.6578 31.25C40.3625 31.25 39.3125 32.3 39.3125 33.5953C39.3125 34.8906 40.3625 35.9406 41.6578 35.9406Z" fill="#FFCE29"/>
  <path d="M19.7812 67.1844H19.7766C18.4844 67.1828 17.4375 66.1359 17.4375 64.8437C17.4375 64.1047 17.5438 57.5172 21.2484 53.8109C22.1641 52.8953 23.6469 52.8953 24.5625 53.8109C25.4781 54.7266 25.4781 56.2094 24.5625 57.125C22.5797 59.1078 22.1297 63.3719 22.1234 64.8469C22.1203 66.139 21.0719 67.1844 19.7812 67.1844Z" fill="white"/>
  <path d="M60.0594 45.8531L49.3078 50L38.2141 45.825C35.1422 44.6687 33.5453 41.2797 34.6078 38.175L38.05 28.125H60.1594L63.6172 38.2203C64.6766 41.3078 63.1047 44.6797 60.0594 45.8531Z" fill="url(#paint0_linear_1_259)"/>
  <path d="M66.3125 61.5011V73.437C66.3125 76.0261 64.2141 78.1245 61.625 78.1245H36.625C34.0359 78.1245 31.9375 76.0261 31.9375 73.437V60.937C31.9375 51.3355 39.7906 43.5855 49.4297 43.7527C58.8969 43.9152 66.3125 52.0323 66.3125 61.5011Z" fill="url(#paint1_linear_1_259)"/>
  <path opacity="0.15" d="M66.3125 73.4377V61.5018C66.3125 58.8002 65.6922 56.2174 64.6078 53.8877C61.1156 54.6674 58.5 57.7736 58.5 61.5018V70.3127H50.6875C46.3719 70.3127 42.875 73.8096 42.875 78.1252H61.625C64.2141 78.1252 66.3125 76.0268 66.3125 73.4377Z" fill="black"/>
  <path d="M49.1258 45.3125C55.169 45.3125 60.068 40.0658 60.068 33.5938C60.068 27.1217 55.169 21.875 49.1258 21.875C43.0826 21.875 38.1836 27.1217 38.1836 33.5938C38.1836 40.0658 43.0826 45.3125 49.1258 45.3125Z" fill="#FFCE29"/>
  <path d="M49.123 20.3125C42.6512 20.3125 37.4043 25.5594 37.4043 32.0312C37.4043 32.2828 37.4262 32.5281 37.4418 32.775C37.6902 32.7891 37.9355 32.8125 38.1855 32.8125C42.7246 32.8125 46.7277 30.5328 49.123 27.0578C51.5184 30.5312 55.5215 32.8125 60.0605 32.8125C60.3121 32.8125 60.5559 32.7891 60.8043 32.775C60.8199 32.5281 60.8418 32.2828 60.8418 32.0312C60.8418 25.5594 55.5949 20.3125 49.123 20.3125Z" fill="url(#paint2_linear_1_259)"/>
  <defs>
    <linearGradient id="paint0_linear_1_259" x1="49.1133" y1="28.125" x2="49.1133" y2="50" gradientUnits="userSpaceOnUse">
      <stop stop-color="#0F0AEF" stop-opacity="0.5"/>
      <stop offset="0.5" stop-color="#0C08BC" stop-opacity="0.75"/>
      <stop offset="1" stop-color="#4846C1"/>
    </linearGradient>
    <linearGradient id="paint1_linear_1_259" x1="49.125" y1="43.75" x2="49.125" y2="78.1245" gradientUnits="userSpaceOnUse">
      <stop stop-color="#4846C1"/>
      <stop offset="1" stop-color="#16A34A"/>
    </linearGradient>
    <linearGradient id="paint2_linear_1_259" x1="49.123" y1="20.3125" x2="49.123" y2="32.8125" gradientUnits="userSpaceOnUse">
      <stop stop-color="#0F0AEF" stop-opacity="0.5"/>
      <stop offset="0.5" stop-color="#0C08BC" stop-opacity="0.75"/>
      <stop offset="1" stop-color="#4846C1"/>
    </linearGradient>
  </defs>
</svg>