<svg width="24" height="18" viewBox="0 0 24 18" fill="none" xmlns="http://www.w3.org/2000/svg">
<path id="Vector" d="M4.32002 0.599976C4.11377 0.599976 3.93002 0.731226 3.8644 0.928101L0.984397 9.5681C0.967522 9.61685 0.960022 9.66748 0.960022 9.71998V16.92C0.960022 17.1862 1.17377 17.4 1.44002 17.4H22.56C22.8263 17.4 23.04 17.1862 23.04 16.92V9.72935C23.04 9.7256 23.04 9.72373 23.04 9.71998C23.04 9.66748 23.0325 9.61685 23.0156 9.5681L20.1356 0.928101C20.07 0.731226 19.8863 0.599976 19.68 0.599976H4.32002ZM4.66502 1.55998H19.335L21.8925 9.23997H15.36C15.0938 9.23997 14.88 9.45373 14.88 9.71998C14.88 11.3081 13.5881 12.6 12 12.6C10.4119 12.6 9.12002 11.3081 9.12002 9.71998C9.12002 9.45373 8.90627 9.23997 8.64002 9.23997H2.10752L4.66502 1.55998Z" fill="#636363"/>
</svg>
