<svg xmlns="http://www.w3.org/2000/svg" width="12" height="12" viewBox="0 0 12 12" fill="none">
  <path d="M6 5.5V8M6 10.5C5.40905 10.5 4.82389 10.3836 4.27792 10.1575C3.73196 9.93131 3.23588 9.59984 2.81802 9.18198C2.40016 8.76412 2.06869 8.26804 1.84254 7.72208C1.6164 7.17611 1.5 6.59095 1.5 6C1.5 5.40905 1.6164 4.82389 1.84254 4.27792C2.06869 3.73196 2.40016 3.23588 2.81802 2.81802C3.23588 2.40016 3.73196 2.06869 4.27792 1.84254C4.82389 1.6164 5.40905 1.5 6 1.5C7.19347 1.5 8.33807 1.97411 9.18198 2.81802C10.0259 3.66193 10.5 4.80653 10.5 6C10.5 7.19347 10.0259 8.33807 9.18198 9.18198C8.33807 10.0259 7.19347 10.5 6 10.5ZM6.025 4V4.05H5.975V4H6.025Z" stroke="white" stroke-linecap="round" stroke-linejoin="round"/>
</svg>