<svg xmlns="http://www.w3.org/2000/svg" width="18" height="19" viewBox="0 0 18 19" fill="none">
  <path d="M17 17.08L11.6667 11.7467M1 7.30222C1 8.11934 1.16094 8.92845 1.47364 9.68337C1.78633 10.4383 2.24466 11.1242 2.82245 11.702C3.40023 12.2798 4.08617 12.7381 4.84108 13.0508C5.596 13.3635 6.40511 13.5244 7.22222 13.5244C8.03934 13.5244 8.84845 13.3635 9.60336 13.0508C10.3583 12.7381 11.0442 12.2798 11.622 11.702C12.1998 11.1242 12.6581 10.4383 12.9708 9.68337C13.2835 8.92845 13.4444 8.11934 13.4444 7.30222C13.4444 6.48511 13.2835 5.676 12.9708 4.92108C12.6581 4.16617 12.1998 3.48024 11.622 2.90245C11.0442 2.32466 10.3583 1.86634 9.60336 1.55364C8.84845 1.24094 8.03934 1.08 7.22222 1.08C6.40511 1.08 5.596 1.24094 4.84108 1.55364C4.08617 1.86634 3.40023 2.32466 2.82245 2.90245C2.24466 3.48024 1.78633 4.16617 1.47364 4.92108C1.16094 5.676 1 6.48511 1 7.30222Z" stroke="#636363" stroke-width="2" stroke-linecap="round" stroke-linejoin="round"/>
</svg>