<svg width="16" height="17" viewBox="0 0 16 17" fill="none" xmlns="http://www.w3.org/2000/svg">
<path id="Vector" d="M8 0.5C3.5888 0.5 0 4.0888 0 8.5V11.8144C0 12.6336 0.7176 13.3 1.6 13.3H2.4C2.61217 13.3 2.81566 13.2157 2.96569 13.0657C3.11571 12.9157 3.2 12.7122 3.2 12.5V8.3856C3.2 8.17343 3.11571 7.96994 2.96569 7.81991C2.81566 7.66989 2.61217 7.5856 2.4 7.5856H1.6736C2.1184 4.4896 4.7824 2.1 8 2.1C11.2176 2.1 13.8816 4.4896 14.3264 7.5856H13.6C13.3878 7.5856 13.1843 7.66989 13.0343 7.81991C12.8843 7.96994 12.8 8.17343 12.8 8.3856V13.3C12.8 14.1824 12.0824 14.9 11.2 14.9H9.6V14.1H6.4V16.5H11.2C12.9648 16.5 14.4 15.0648 14.4 13.3C15.2824 13.3 16 12.6336 16 11.8144V8.5C16 4.0888 12.4112 0.5 8 0.5Z" fill="#636363"/>
</svg>
