<svg width="18" height="17" viewBox="0 0 18 17" fill="none" xmlns="http://www.w3.org/2000/svg">
<path id="Vector" d="M11.3369 6.72222C12.1956 6.72222 12.8924 7.41911 12.8924 8.27778V12.4991C12.8924 13.5602 12.4709 14.5779 11.7206 15.3282C10.9703 16.0785 9.95266 16.5 8.89155 16.5C7.83045 16.5 6.81281 16.0785 6.0625 15.3282C5.31219 14.5779 4.89067 13.5602 4.89067 12.4991V8.27778C4.89067 7.41911 5.58667 6.72222 6.44622 6.72222H11.3369ZM11.3369 8.05556H6.44622C6.38728 8.05556 6.33076 8.07897 6.28909 8.12064C6.24741 8.16232 6.224 8.21884 6.224 8.27778V12.4991C6.224 13.2066 6.50504 13.8851 7.00531 14.3854C7.50557 14.8856 8.18408 15.1667 8.89155 15.1667C9.59904 15.1667 10.2775 14.8856 10.7778 14.3854C11.2781 13.8851 11.5591 13.2066 11.5591 12.4991V8.27778C11.5591 8.21884 11.5357 8.16232 11.494 8.12064C11.4523 8.07897 11.3958 8.05556 11.3369 8.05556ZM1.55556 6.72222H4.56089C4.24738 7.10103 4.05588 7.56585 4.01156 8.05556H1.55556C1.49662 8.05556 1.4401 8.07897 1.39842 8.12064C1.35675 8.16232 1.33333 8.21884 1.33333 8.27778V11.1658C1.33311 11.5017 1.40905 11.8334 1.55546 12.1357C1.70187 12.4381 1.91493 12.7033 2.17862 12.9115C2.44231 13.1197 2.74977 13.2653 3.07787 13.3376C3.40596 13.4098 3.74617 13.4067 4.07289 13.3284C4.14844 13.7764 4.28622 14.204 4.47555 14.6013C4.18163 14.6813 3.87496 14.7216 3.55556 14.7222C3.08856 14.7222 2.62614 14.6302 2.1947 14.4515C1.76326 14.2727 1.37126 14.0108 1.04108 13.6805C0.710908 13.3503 0.449027 12.9582 0.270396 12.5267C0.0917645 12.0952 -0.000116638 11.6328 1.11121e-07 11.1658V8.27778C1.11121e-07 7.41911 0.696889 6.72222 1.55556 6.72222ZM13.2222 6.72222H16.2222C17.0809 6.72222 17.7778 7.41911 17.7778 8.27778V11.1667C17.7779 11.7117 17.6527 12.2495 17.4119 12.7384C17.1711 13.2274 16.8211 13.6544 16.3889 13.9865C15.9568 14.3187 15.4541 14.547 14.9196 14.6539C14.3852 14.7608 13.8333 14.7435 13.3067 14.6031C13.4969 14.2049 13.6347 13.7773 13.7111 13.3293C13.8753 13.3684 14.0456 13.3883 14.2222 13.3889C14.8116 13.3889 15.3768 13.1548 15.7936 12.738C16.2103 12.3213 16.4444 11.756 16.4444 11.1667V8.27778C16.4444 8.21884 16.421 8.16232 16.3794 8.12064C16.3377 8.07897 16.2812 8.05556 16.2222 8.05556H13.7716C13.7272 7.56585 13.5357 7.10103 13.2222 6.72222ZM8.88889 0.5C9.59613 0.5 10.2744 0.780952 10.7745 1.28105C11.2746 1.78115 11.5556 2.45942 11.5556 3.16667C11.5556 3.87391 11.2746 4.55219 10.7745 5.05229C10.2744 5.55238 9.59613 5.83333 8.88889 5.83333C8.18164 5.83333 7.50337 5.55238 7.00327 5.05229C6.50317 4.55219 6.22222 3.87391 6.22222 3.16667C6.22222 2.45942 6.50317 1.78115 7.00327 1.28105C7.50337 0.780952 8.18164 0.5 8.88889 0.5ZM14.6667 1.38889C15.256 1.38889 15.8213 1.62302 16.238 2.03976C16.6548 2.45651 16.8889 3.02174 16.8889 3.61111C16.8889 4.20048 16.6548 4.76571 16.238 5.18246C15.8213 5.59921 15.256 5.83333 14.6667 5.83333C14.0773 5.83333 13.5121 5.59921 13.0953 5.18246C12.6786 4.76571 12.4444 4.20048 12.4444 3.61111C12.4444 3.02174 12.6786 2.45651 13.0953 2.03976C13.5121 1.62302 14.0773 1.38889 14.6667 1.38889ZM3.11111 1.38889C3.70048 1.38889 4.26571 1.62302 4.68246 2.03976C5.09921 2.45651 5.33333 3.02174 5.33333 3.61111C5.33333 4.20048 5.09921 4.76571 4.68246 5.18246C4.26571 5.59921 3.70048 5.83333 3.11111 5.83333C2.52174 5.83333 1.95651 5.59921 1.53976 5.18246C1.12302 4.76571 0.888889 4.20048 0.888889 3.61111C0.888889 3.02174 1.12302 2.45651 1.53976 2.03976C1.95651 1.62302 2.52174 1.38889 3.11111 1.38889ZM8.88889 1.83333C8.53527 1.83333 8.19613 1.97381 7.94608 2.22386C7.69603 2.47391 7.55556 2.81304 7.55556 3.16667C7.55556 3.52029 7.69603 3.85943 7.94608 4.10948C8.19613 4.35952 8.53527 4.5 8.88889 4.5C9.24251 4.5 9.58165 4.35952 9.8317 4.10948C10.0817 3.85943 10.2222 3.52029 10.2222 3.16667C10.2222 2.81304 10.0817 2.47391 9.8317 2.22386C9.58165 1.97381 9.24251 1.83333 8.88889 1.83333ZM14.6667 2.72222C14.4309 2.72222 14.2048 2.81587 14.0381 2.98257C13.8714 3.14927 13.7778 3.37536 13.7778 3.61111C13.7778 3.84686 13.8714 4.07295 14.0381 4.23965C14.2048 4.40635 14.4309 4.5 14.6667 4.5C14.9024 4.5 15.1285 4.40635 15.2952 4.23965C15.4619 4.07295 15.5556 3.84686 15.5556 3.61111C15.5556 3.37536 15.4619 3.14927 15.2952 2.98257C15.1285 2.81587 14.9024 2.72222 14.6667 2.72222ZM3.11111 2.72222C2.87536 2.72222 2.64927 2.81587 2.48257 2.98257C2.31587 3.14927 2.22222 3.37536 2.22222 3.61111C2.22222 3.84686 2.31587 4.07295 2.48257 4.23965C2.64927 4.40635 2.87536 4.5 3.11111 4.5C3.34686 4.5 3.57295 4.40635 3.73965 4.23965C3.90635 4.07295 4 3.84686 4 3.61111C4 3.37536 3.90635 3.14927 3.73965 2.98257C3.57295 2.81587 3.34686 2.72222 3.11111 2.72222Z" fill="#636363"/>
</svg>
