<svg width="16" height="17" viewBox="0 0 16 17" fill="none" xmlns="http://www.w3.org/2000/svg">
<path id="Vector" d="M5.99881 7.30183H7.99842C8.21055 7.30183 8.41399 7.21756 8.56399 7.06756C8.71399 6.91756 8.79826 6.71412 8.79826 6.50199C8.79826 6.28986 8.71399 6.08641 8.56399 5.93641C8.41399 5.78641 8.21055 5.70215 7.99842 5.70215H7.19858V5.30223C7.19858 5.09009 7.11431 4.88665 6.96431 4.73665C6.81431 4.58665 6.61087 4.50238 6.39873 4.50238C6.1866 4.50238 5.98316 4.58665 5.83316 4.73665C5.68316 4.88665 5.59889 5.09009 5.59889 5.30223V5.74214C5.11293 5.84082 4.68097 6.11654 4.38686 6.51579C4.09275 6.91505 3.95749 7.40934 4.00733 7.90271C4.05716 8.39608 4.28854 8.85333 4.65655 9.1857C5.02455 9.51807 5.50293 9.70185 5.99881 9.70135H6.79866C6.90472 9.70135 7.00644 9.74349 7.08144 9.81849C7.15644 9.89349 7.19858 9.99521 7.19858 10.1013C7.19858 10.2073 7.15644 10.3091 7.08144 10.3841C7.00644 10.4591 6.90472 10.5012 6.79866 10.5012H4.79905C4.58692 10.5012 4.38348 10.5855 4.23348 10.7355C4.08348 10.8855 3.99921 11.0889 3.99921 11.301C3.99921 11.5132 4.08348 11.7166 4.23348 11.8666C4.38348 12.0166 4.58692 12.1009 4.79905 12.1009H5.59889V12.5008C5.59889 12.7129 5.68316 12.9164 5.83316 13.0664C5.98316 13.2164 6.1866 13.3006 6.39873 13.3006C6.61087 13.3006 6.81431 13.2164 6.96431 13.0664C7.11431 12.9164 7.19858 12.7129 7.19858 12.5008V12.0609C7.68454 11.9622 8.1165 11.6865 8.41061 11.2872C8.70471 10.888 8.83998 10.3937 8.79014 9.90031C8.74031 9.40694 8.50893 8.94969 8.14092 8.61732C7.77291 8.28495 7.29454 8.10117 6.79866 8.10167H5.99881C5.89275 8.10167 5.79103 8.05954 5.71603 7.98454C5.64103 7.90954 5.59889 7.80781 5.59889 7.70175C5.59889 7.59568 5.64103 7.49396 5.71603 7.41896C5.79103 7.34396 5.89275 7.30183 5.99881 7.30183ZM15.197 8.50159H12.7975V1.30302C12.798 1.16208 12.7613 1.02349 12.6911 0.901297C12.6209 0.779099 12.5196 0.677628 12.3975 0.607158C12.276 0.536958 12.138 0.5 11.9976 0.5C11.8572 0.5 11.7193 0.536958 11.5977 0.607158L9.19818 1.98288L6.79866 0.607158C6.67706 0.536958 6.53914 0.5 6.39873 0.5C6.25833 0.5 6.12041 0.536958 5.99881 0.607158L3.59929 1.98288L1.19977 0.607158C1.07818 0.536958 0.940249 0.5 0.799847 0.5C0.659446 0.5 0.521518 0.536958 0.399927 0.607158C0.277868 0.677628 0.176596 0.779099 0.106368 0.901297C0.036139 1.02349 -0.000553238 1.16208 6.30505e-06 1.30302V14.1005C6.30505e-06 14.7369 0.252813 15.3472 0.70281 15.7972C1.15281 16.2472 1.76314 16.5 2.39953 16.5H13.5973C14.2337 16.5 14.844 16.2472 15.294 15.7972C15.744 15.3472 15.9968 14.7369 15.9968 14.1005V9.30143C15.9968 9.0893 15.9126 8.88586 15.7626 8.73586C15.6126 8.58586 15.4091 8.50159 15.197 8.50159ZM2.39953 14.9003C2.1874 14.9003 1.98396 14.8161 1.83396 14.6661C1.68396 14.5161 1.59969 14.3126 1.59969 14.1005V2.68674L3.19937 3.59856C3.32282 3.66304 3.46002 3.69671 3.59929 3.69671C3.73856 3.69671 3.87577 3.66304 3.99921 3.59856L6.39873 2.22284L8.79826 3.59856C8.9217 3.66304 9.05891 3.69671 9.19818 3.69671C9.33745 3.69671 9.47465 3.66304 9.5981 3.59856L11.1978 2.68674V14.1005C11.1999 14.3733 11.2486 14.6438 11.3418 14.9003H2.39953ZM14.3971 14.1005C14.3971 14.3126 14.3129 14.5161 14.1629 14.6661C14.0129 14.8161 13.8094 14.9003 13.5973 14.9003C13.3852 14.9003 13.1817 14.8161 13.0317 14.6661C12.8817 14.5161 12.7975 14.3126 12.7975 14.1005V10.1013H14.3971V14.1005Z" fill="#636363"/>
</svg>
