<svg width="18" height="19" viewBox="0 0 18 19" fill="none" xmlns="http://www.w3.org/2000/svg">
<path id="Vector" d="M17 17.5L11.6667 12.1667M1 7.72222C1 8.53934 1.16094 9.34845 1.47364 10.1034C1.78633 10.8583 2.24466 11.5442 2.82245 12.122C3.40023 12.6998 4.08617 13.1581 4.84108 13.4708C5.596 13.7835 6.40511 13.9444 7.22222 13.9444C8.03934 13.9444 8.84845 13.7835 9.60336 13.4708C10.3583 13.1581 11.0442 12.6998 11.622 12.122C12.1998 11.5442 12.6581 10.8583 12.9708 10.1034C13.2835 9.34845 13.4444 8.53934 13.4444 7.72222C13.4444 6.90511 13.2835 6.096 12.9708 5.34108C12.6581 4.58617 12.1998 3.90023 11.622 3.32245C11.0442 2.74466 10.3583 2.28633 9.60336 1.97364C8.84845 1.66094 8.03934 1.5 7.22222 1.5C6.40511 1.5 5.596 1.66094 4.84108 1.97364C4.08617 2.28633 3.40023 2.74466 2.82245 3.32245C2.24466 3.90023 1.78633 4.58617 1.47364 5.34108C1.16094 6.096 1 6.90511 1 7.72222Z" stroke="#0F0AEF" stroke-width="2" stroke-linecap="round" stroke-linejoin="round"/>
</svg>
