<svg width="15" height="17" viewBox="0 0 15 17" fill="none" xmlns="http://www.w3.org/2000/svg">
<path id="Vector" d="M2.625 0.25C1.71961 0.25 0.962401 0.895339 0.788086 1.75H0.375C0.168 1.75 0 1.918 0 2.125V2.875C0 3.082 0.168 3.25 0.375 3.25H0.75V9.45142C0.30225 9.71092 0 10.1958 0 10.75V14.875C0 15.9089 0.841125 16.75 1.875 16.75H12.375C13.4089 16.75 14.25 15.9089 14.25 14.875V10.75C14.25 10.1961 13.9478 9.71129 13.5 9.45142V3.25H13.875C14.082 3.25 14.25 3.082 14.25 2.875V2.125C14.25 1.918 14.082 1.75 13.875 1.75H13.4619C13.2876 0.895339 12.5304 0.25 11.625 0.25H2.625ZM2.625 1.75H11.625C11.832 1.75 12 1.918 12 2.125V10.375C12 10.582 12.168 10.75 12.375 10.75C12.582 10.75 12.75 10.918 12.75 11.125V14.875C12.75 15.082 12.582 15.25 12.375 15.25H8.25V12.625C8.25 12.418 8.082 12.25 7.875 12.25H6.375C6.168 12.25 6 12.418 6 12.625V15.25H1.875C1.668 15.25 1.5 15.082 1.5 14.875V11.125C1.5 10.918 1.668 10.75 1.875 10.75C2.082 10.75 2.25 10.582 2.25 10.375V2.125C2.25 1.918 2.418 1.75 2.625 1.75ZM3.75 3.25C3.543 3.25 3.375 3.418 3.375 3.625V4.375C3.375 4.582 3.543 4.75 3.75 4.75H4.5C4.707 4.75 4.875 4.582 4.875 4.375V3.625C4.875 3.418 4.707 3.25 4.5 3.25H3.75ZM6.75 3.25C6.543 3.25 6.375 3.418 6.375 3.625V4.375C6.375 4.582 6.543 4.75 6.75 4.75H7.5C7.707 4.75 7.875 4.582 7.875 4.375V3.625C7.875 3.418 7.707 3.25 7.5 3.25H6.75ZM9.75 3.25C9.543 3.25 9.375 3.418 9.375 3.625V4.375C9.375 4.582 9.543 4.75 9.75 4.75H10.5C10.707 4.75 10.875 4.582 10.875 4.375V3.625C10.875 3.418 10.707 3.25 10.5 3.25H9.75ZM3.75 6.25C3.543 6.25 3.375 6.418 3.375 6.625V7.375C3.375 7.582 3.543 7.75 3.75 7.75H4.5C4.707 7.75 4.875 7.582 4.875 7.375V6.625C4.875 6.418 4.707 6.25 4.5 6.25H3.75ZM6.75 6.25C6.543 6.25 6.375 6.418 6.375 6.625V7.375C6.375 7.582 6.543 7.75 6.75 7.75H7.5C7.707 7.75 7.875 7.582 7.875 7.375V6.625C7.875 6.418 7.707 6.25 7.5 6.25H6.75ZM9.75 6.25C9.543 6.25 9.375 6.418 9.375 6.625V7.375C9.375 7.582 9.543 7.75 9.75 7.75H10.5C10.707 7.75 10.875 7.582 10.875 7.375V6.625C10.875 6.418 10.707 6.25 10.5 6.25H9.75ZM3.75 9.25C3.543 9.25 3.375 9.418 3.375 9.625V10.375C3.375 10.582 3.543 10.75 3.75 10.75H4.5C4.707 10.75 4.875 10.582 4.875 10.375V9.625C4.875 9.418 4.707 9.25 4.5 9.25H3.75ZM6.75 9.25C6.543 9.25 6.375 9.418 6.375 9.625V10.375C6.375 10.582 6.543 10.75 6.75 10.75H7.5C7.707 10.75 7.875 10.582 7.875 10.375V9.625C7.875 9.418 7.707 9.25 7.5 9.25H6.75ZM9.75 9.25C9.543 9.25 9.375 9.418 9.375 9.625V10.375C9.375 10.582 9.543 10.75 9.75 10.75H10.5C10.707 10.75 10.875 10.582 10.875 10.375V9.625C10.875 9.418 10.707 9.25 10.5 9.25H9.75ZM3.375 12.25C3.168 12.25 3 12.418 3 12.625V13.375C3 13.582 3.168 13.75 3.375 13.75H4.125C4.332 13.75 4.5 13.582 4.5 13.375V12.625C4.5 12.418 4.332 12.25 4.125 12.25H3.375ZM10.125 12.25C9.918 12.25 9.75 12.418 9.75 12.625V13.375C9.75 13.582 9.918 13.75 10.125 13.75H10.875C11.082 13.75 11.25 13.582 11.25 13.375V12.625C11.25 12.418 11.082 12.25 10.875 12.25H10.125Z" fill="#636363"/>
</svg>
